{
	"asset":{
		"version":"2.0",
		"generator":"Created using the official Cinema 4D glTF Exporter 1.000x284978"
	},
	"textures":[{
		"sampler":0,
		"source":0
	},
	{
		"sampler":1,
		"source":1
	},
	{
		"sampler":2,
		"source":2
	},
	{
		"sampler":3,
		"source":3
	},
	{
		"sampler":4,
		"source":4
	},
	{
		"sampler":5,
		"source":5
	},
	{
		"sampler":6,
		"source":6
	},
	{
		"sampler":7,
		"source":7
	},
	{
		"sampler":8,
		"source":8
	}],
	"scenes":[{
		"nodes":[0]
	}],
	"bufferViews":[{
		"buffer":0,
		"byteOffset":0,
		"byteLength":57600,
		"target":34963
	},
	{
		"buffer":0,
		"byteOffset":57600,
		"byteLength":184832,
		"target":34962,
		"byteStride":32
	},
	{
		"buffer":1,
		"byteOffset":0,
		"byteLength":29496,
		"target":34963
	},
	{
		"buffer":1,
		"byteOffset":29496,
		"byteLength":92768,
		"target":34962,
		"byteStride":32
	},
	{
		"buffer":2,
		"byteOffset":0,
		"byteLength":168,
		"target":34963
	},
	{
		"buffer":2,
		"byteOffset":168,
		"byteLength":1536,
		"target":34962,
		"byteStride":32
	},
	{
		"buffer":3,
		"byteOffset":0,
		"byteLength":57018,
		"target":34963
	},
	{
		"buffer":3,
		"byteOffset":57020,
		"byteLength":206336,
		"target":34962,
		"byteStride":32
	}],
	"nodes":[{
		"name":"cat_TigerSkin",
		"translation":[0.0,
		0.0,
		0.0],
		"rotation":[0.7071067690849304,
		0.0,
		0.0,
		-0.7071067690849304],
		"scale":[1.0,
		1.0,
		1.0],
		"children":[1,
		2,
		3,
		4]
	},
	{
		"name":"cat_TigerSkin-3",
		"translation":[0.0,
		0.0,
		0.0],
		"rotation":[0.0,
		0.0,
		0.0,
		-1.0],
		"scale":[1.0,
		1.0,
		1.0],
		"mesh":0
	},
	{
		"name":"cat_TigerSkin-1",
		"translation":[0.0,
		0.0,
		0.0],
		"rotation":[0.0,
		0.0,
		0.0,
		-1.0],
		"scale":[1.0,
		1.0,
		1.0],
		"mesh":1
	},
	{
		"name":"cat_TigerSkin-4",
		"translation":[0.0,
		0.0,
		0.0],
		"rotation":[0.0,
		0.0,
		0.0,
		-1.0],
		"scale":[1.0,
		1.0,
		1.0],
		"mesh":2
	},
	{
		"name":"cat_TigerSkin-2",
		"translation":[0.0,
		0.0,
		0.0],
		"rotation":[0.0,
		0.0,
		0.0,
		-1.0],
		"scale":[1.0,
		1.0,
		1.0],
		"mesh":3
	}],
	"samplers":[{
		"magFilter":9729,
		"minFilter":9729,
		"wrapS":10497,
		"wrapT":10497
	},
	{
		"magFilter":9729,
		"minFilter":9729,
		"wrapS":10497,
		"wrapT":10497
	},
	{
		"magFilter":9729,
		"minFilter":9729,
		"wrapS":10497,
		"wrapT":10497
	},
	{
		"magFilter":9729,
		"minFilter":9729,
		"wrapS":10497,
		"wrapT":10497
	},
	{
		"magFilter":9729,
		"minFilter":9729,
		"wrapS":10497,
		"wrapT":10497
	},
	{
		"magFilter":9729,
		"minFilter":9729,
		"wrapS":10497,
		"wrapT":10497
	},
	{
		"magFilter":9729,
		"minFilter":9729,
		"wrapS":10497,
		"wrapT":10497
	},
	{
		"magFilter":9729,
		"minFilter":9729,
		"wrapS":10497,
		"wrapT":10497
	},
	{
		"magFilter":9729,
		"minFilter":9729,
		"wrapS":10497,
		"wrapT":10497
	}],
	"meshes":[{
		"name":"cat_TigerSkin-3",
		"primitives":[{
			"attributes":{
				"POSITION":1,
				"NORMAL":2,
				"TEXCOORD_0":3
			},
			"indices":0,
			"material":0
		}]
	},
	{
		"name":"cat_TigerSkin-1",
		"primitives":[{
			"attributes":{
				"POSITION":5,
				"NORMAL":6,
				"TEXCOORD_0":7
			},
			"indices":4,
			"material":1
		}]
	},
	{
		"name":"cat_TigerSkin-4",
		"primitives":[{
			"attributes":{
				"POSITION":9,
				"NORMAL":10,
				"TEXCOORD_0":11
			},
			"indices":8,
			"material":2
		}]
	},
	{
		"name":"cat_TigerSkin-2",
		"primitives":[{
			"attributes":{
				"POSITION":13,
				"NORMAL":14,
				"TEXCOORD_0":15
			},
			"indices":12,
			"material":3
		}]
	}],
	"accessors":[{
		"bufferView":0,
		"type":"SCALAR",
		"componentType":5123,
		"count":28800,
		"byteOffset":0,
		"min":[0],
		"max":[5775]
	},
	{
		"bufferView":1,
		"type":"VEC3",
		"componentType":5126,
		"count":5776,
		"byteOffset":0,
		"min":[-0.4120899736881256,
		-0.43431466817855837,
		0.8298152685165405],
		"max":[-0.13278131186962129,
		-0.28522998094558718,
		1.581209421157837]
	},
	{
		"bufferView":1,
		"type":"VEC3",
		"componentType":5126,
		"count":5776,
		"byteOffset":12,
		"min":[-0.9982500672340393,
		-0.998468816280365,
		-0.9985625743865967],
		"max":[0.9991875290870667,
		0.9994375705718994,
		0.999093770980835]
	},
	{
		"bufferView":1,
		"type":"VEC2",
		"componentType":5126,
		"count":5776,
		"byteOffset":24,
		"min":[0.01511403825134039,
		-0.9695707559585571],
		"max":[0.9870970249176025,
		0.0]
	},
	{
		"bufferView":2,
		"type":"SCALAR",
		"componentType":5123,
		"count":14748,
		"byteOffset":0,
		"min":[0],
		"max":[2898]
	},
	{
		"bufferView":3,
		"type":"VEC3",
		"componentType":5126,
		"count":2899,
		"byteOffset":0,
		"min":[-0.48608848452568056,
		-0.37791693210601809,
		0.23091860115528108],
		"max":[0.5594978928565979,
		0.5656587481498718,
		1.3163176774978638]
	},
	{
		"bufferView":3,
		"type":"VEC3",
		"componentType":5126,
		"count":2899,
		"byteOffset":12,
		"min":[-0.999093770980835,
		-0.9994062781333923,
		-0.999750018119812],
		"max":[0.9975938200950623,
		0.9994062781333923,
		0.9986875653266907]
	},
	{
		"bufferView":3,
		"type":"VEC2",
		"componentType":5126,
		"count":2899,
		"byteOffset":24,
		"min":[0.01715124025940895,
		-0.9830013513565064],
		"max":[0.9808266162872315,
		-0.005060434341430664]
	},
	{
		"bufferView":4,
		"type":"SCALAR",
		"componentType":5123,
		"count":84,
		"byteOffset":0,
		"min":[0],
		"max":[47]
	},
	{
		"bufferView":5,
		"type":"VEC3",
		"componentType":5126,
		"count":48,
		"byteOffset":0,
		"min":[-0.15562745928764344,
		-0.22474020719528199,
		1.0521714687347413],
		"max":[0.014796674251556397,
		-0.19607211649417878,
		1.1747441291809083]
	},
	{
		"bufferView":5,
		"type":"VEC3",
		"componentType":5126,
		"count":48,
		"byteOffset":12,
		"min":[-0.984000027179718,
		-0.982718825340271,
		-0.9680625200271606],
		"max":[0.984000027179718,
		0.982718825340271,
		0.967843770980835]
	},
	{
		"bufferView":5,
		"type":"VEC2",
		"componentType":5126,
		"count":48,
		"byteOffset":24,
		"min":[0.005983714014291763,
		-0.5831490159034729],
		"max":[0.5377144813537598,
		-0.018322110176086427]
	},
	{
		"bufferView":6,
		"type":"SCALAR",
		"componentType":5123,
		"count":28509,
		"byteOffset":0,
		"min":[0],
		"max":[6447]
	},
	{
		"bufferView":7,
		"type":"VEC3",
		"componentType":5126,
		"count":6448,
		"byteOffset":0,
		"min":[-0.41491299867630007,
		-0.35469451546669009,
		-0.15619614720344544],
		"max":[0.525265634059906,
		0.329874724149704,
		1.4733259677886963]
	},
	{
		"bufferView":7,
		"type":"VEC3",
		"componentType":5126,
		"count":6448,
		"byteOffset":12,
		"min":[-0.9987500309944153,
		-0.9996563196182251,
		-0.9998437762260437],
		"max":[0.999000072479248,
		0.9998750686645508,
		0.9994062781333923]
	},
	{
		"bufferView":7,
		"type":"VEC2",
		"componentType":5126,
		"count":6448,
		"byteOffset":24,
		"min":[0.0005000076489523053,
		-0.9954810738563538],
		"max":[0.9944517612457275,
		-0.0038385391235351564]
	}],
	"buffers":[{
		"uri":"data:application/octet-stream;base64,",
		"byteLength":242432
	},
	{
		"uri":"data:application/octet-stream;base64,",
		"byteLength":122264
	},
	{
		"uri":"data:application/octet-stream;base64,",
		"byteLength":1704
	},
	{
		"uri":"data:application/octet-stream;base64,",
		"byteLength":263356
	}],
	"images":[{
		"uri":"data:image/jpeg;base64,"
	},
	{
		"uri":"data:image/jpeg;base64,"
	},
	{
		"uri":"data:image/jpeg;base64,"
	},
	{
		"uri":"data:image/jpeg;base64,"
	},
	{
		"uri":"data:image/jpeg;base64,"
	},
	{
		"uri":"data:image/jpeg;base64,"
	},
	{
		"uri":"data:image/jpeg;base64,"
	},
	{
		"uri":"data:image/jpeg;base64,"
	},
	{
		"uri":"data:image/jpeg;base64,"
	}],
	"materials":[{
		"pbrMetallicRoughness":{
			"baseColorTexture":{
				"index":0
			},
			"baseColorFactor":[1.0,
			1.0,
			1.0,
			1.0],
			"metallicFactor":1.0,
			"roughnessFactor":1.0
		},
		"emissiveFactor":[0.0,
		0.0,
		0.0],
		"alphaMode":"OPAQUE",
		"doubleSided":true,
		"name":"3"
	},
	{
		"pbrMetallicRoughness":{
			"baseColorTexture":{
				"index":1
			},
			"baseColorFactor":[1.0,
			1.0,
			1.0,
			1.0],
			"metallicFactor":1.0,
			"roughnessFactor":1.0
		},
		"normalTexture":{
			"index":2,
			"scale":0.1
		},
		"occlusionTexture":{
			"index":3,
			"strength":0.0
		},
		"emissiveTexture":{
			"index":4
		},
		"emissiveFactor":[0.0,
		0.0,
		0.0],
		"alphaMode":"OPAQUE",
		"doubleSided":true,
		"name":"1"
	},
	{
		"pbrMetallicRoughness":{
			"baseColorTexture":{
				"index":5
			},
			"baseColorFactor":[0.5879999995231628,
			0.5879999995231628,
			0.5879999995231628,
			0.5],
			"metallicFactor":1.0,
			"roughnessFactor":1.0
		},
		"emissiveFactor":[0.0,
		0.0,
		0.0],
		"alphaMode":"BLEND",
		"doubleSided":true,
		"name":"4"
	},
	{
		"pbrMetallicRoughness":{
			"baseColorTexture":{
				"index":6
			},
			"baseColorFactor":[1.0,
			1.0,
			1.0,
			1.0],
			"metallicFactor":1.0,
			"roughnessFactor":1.0
		},
		"normalTexture":{
			"index":7,
			"scale":1.0
		},
		"occlusionTexture":{
			"index":8,
			"strength":0.0
		},
		"emissiveFactor":[0.0,
		0.0,
		0.0],
		"alphaMode":"OPAQUE",
		"doubleSided":true,
		"name":"2"
	}]
}